<svg xmlns="http://www.w3.org/2000/svg" xmlns:xlink="http://www.w3.org/1999/xlink" width="90" height="90" viewBox="0 0 90 90"><defs><linearGradient id="a" x1="1" x2="0" y2="1" gradientUnits="objectBoundingBox"><stop offset="0" stop-color="#a2facf"/><stop offset="1" stop-color="#64acff"/></linearGradient><linearGradient id="b" x2="0.015" xlink:href="#a"/></defs><g transform="translate(-5 -5)"><path d="M87,90H3a3,3,0,0,1-3-3V3A3,3,0,0,1,3,0H87a3,3,0,0,1,3,3V87A3,3,0,0,1,87,90ZM6,5A1,1,0,0,0,5,6V84a1,1,0,0,0,1,1H84a1,1,0,0,0,1-1V6a1,1,0,0,0-1-1Z" transform="translate(5 5)" fill="url(#a)"/><rect width="60" height="60" rx="1" transform="translate(20 20)" fill="url(#b)"/></g></svg>